<svg width="20" height="20" viewBox="0 0 20 20" fill="white" xmlns="http://www.w3.org/2000/svg">
<path d="M15.8334 6.66634L12.5 9.99967H15C15 12.758 12.7584 14.9997 10 14.9997C9.15837 14.9997 8.35837 14.7913 7.6667 14.4163L6.45004 15.633C7.47504 16.283 8.6917 16.6663 10 16.6663C13.6834 16.6663 16.6667 13.683 16.6667 9.99967H19.1667L15.8334 6.66634ZM5.00004 9.99967C5.00004 7.24134 7.2417 4.99967 10 4.99967C10.8417 4.99967 11.6417 5.20801 12.3334 5.58301L13.55 4.36634C12.525 3.71634 11.3084 3.33301 10 3.33301C6.31671 3.33301 3.33337 6.31634 3.33337 9.99967H0.833374L4.16671 13.333L7.50004 9.99967H5.00004Z"/>
</svg>
