<svg width="76" height="40" viewBox="0 0 76 40" fill="none" xmlns="http://www.w3.org/2000/svg">
<path d="M37.2539 11.0015C36.4597 10.2116 36.0626 9.22431 36.0626 8.03954C36.0626 6.85476 36.4597 5.86745 37.2539 5.0776C38.0597 4.28775 39.0611 3.89283 40.2581 3.89283C41.4552 3.89283 42.4509 4.28775 43.2451 5.0776C44.0508 5.86745 44.4537 6.85476 44.4537 8.03954C44.4537 9.22431 44.0508 10.2116 43.2451 11.0015C42.4509 11.7913 41.4552 12.1862 40.2581 12.1862C39.0611 12.1862 38.0597 11.7913 37.2539 11.0015ZM38.428 6.17775C37.9445 6.68551 37.7028 7.30611 37.7028 8.03954C37.7028 8.77297 37.9445 9.39356 38.428 9.90132C38.9114 10.4091 39.5215 10.663 40.2581 10.663C40.9948 10.663 41.6049 10.4091 42.0883 9.90132C42.5717 9.39356 42.8135 8.77297 42.8135 8.03954C42.8135 7.30611 42.5717 6.68551 42.0883 6.17775C41.6049 5.66999 40.9948 5.41611 40.2581 5.41611C39.5215 5.41611 38.9114 5.66999 38.428 6.17775Z" fill="#212121"/>
<path d="M48.2896 4.06208V4.82372C48.9457 4.20313 49.7572 3.89283 50.7241 3.89283C51.9442 3.89283 52.9283 4.3611 53.6765 5.29763C54.206 5.95208 54.4707 6.89425 54.4707 8.12416V12.017H52.8305V8.03954C52.8305 7.20455 52.6693 6.5896 52.347 6.19467C51.9327 5.67563 51.3744 5.41611 50.6723 5.41611C49.7514 5.41611 48.9745 5.79411 48.3414 6.55011V12.017H46.7012V4.06208H48.2896Z" fill="#212121"/>
<path d="M57.2393 12.017V0H58.8795V12.017H57.2393Z" fill="#212121"/>
<path d="M63.5351 16.0791H61.7913L63.9841 11.1876L60.5137 4.06208H62.2748L64.8128 9.30894L67.1437 4.06208H68.8702L63.5351 16.0791Z" fill="#212121"/>
<path d="M41.7602 13.2477L41.4149 14.7202C41.2538 14.6751 41.0524 14.6525 40.8106 14.6525C40.2697 14.6525 39.8553 14.8387 39.5675 15.211C39.3603 15.4819 39.2567 15.9558 39.2567 16.6328V17.3606H41.7602V18.7992H39.2567V25.3155H37.6165V18.7992H35.7173V17.3606H37.6165V16.6835C37.6165 15.6793 37.7892 14.9346 38.1345 14.4494C38.756 13.5693 39.6423 13.1292 40.7934 13.1292C41.1732 13.1292 41.4955 13.1687 41.7602 13.2477Z" fill="#212121"/>
<path d="M48.2436 17.2421L48.0537 18.7823C47.881 18.7372 47.6681 18.7146 47.4149 18.7146C47.0005 18.7146 46.5861 18.8444 46.1717 19.1039C45.7689 19.3521 45.4523 19.6681 45.2221 20.0517V25.3155H43.5819V17.3606H45.1703V18.2745C45.389 17.9699 45.7113 17.716 46.1372 17.5129C46.5631 17.2985 47.0523 17.1913 47.6048 17.1913C47.835 17.1913 48.0479 17.2082 48.2436 17.2421Z" fill="#212121"/>
<path d="M57.0359 21.6765H50.7857C50.8318 22.3535 51.1022 22.9234 51.5972 23.386C52.1037 23.8486 52.7079 24.0799 53.4101 24.0799C54.2964 24.0799 55.0733 23.7188 55.7409 22.9967L56.8114 23.9953C56.4776 24.4241 56.0172 24.7795 55.4302 25.0616C54.8431 25.3437 54.164 25.4847 53.3928 25.4847C52.2072 25.4847 51.2116 25.0898 50.4059 24.3C49.6001 23.5101 49.1973 22.5228 49.1973 21.338C49.1973 20.142 49.5656 19.1546 50.3023 18.3761C51.0504 17.5862 52.0001 17.1913 53.1511 17.1913C54.2791 17.1913 55.2115 17.5862 55.9481 18.3761C56.6848 19.1659 57.0531 20.1532 57.0531 21.338C57.0531 21.4621 57.0474 21.575 57.0359 21.6765ZM53.2029 18.5961C52.6734 18.5961 52.1957 18.7597 51.7698 19.0869C51.344 19.4029 51.062 19.8147 50.9238 20.3225H55.3438C55.2287 19.826 54.964 19.4142 54.5496 19.0869C54.1467 18.7597 53.6978 18.5961 53.2029 18.5961Z" fill="#212121"/>
<path d="M58.5194 24.3846L59.3654 23.1998C60.1366 23.7865 60.9365 24.0799 61.7653 24.0799C62.1451 24.0799 62.4732 23.9897 62.7494 23.8091C63.0372 23.6173 63.1811 23.3747 63.1811 23.0813C63.1811 22.9121 63.135 22.7654 63.0429 22.6413C62.9509 22.5059 62.807 22.3987 62.6113 22.3197C62.4271 22.2294 62.243 22.1617 62.0588 22.1166C61.8861 22.0602 61.6502 21.9981 61.3509 21.9304C61.0632 21.8514 60.8272 21.7837 60.643 21.7273C59.3999 21.3211 58.7783 20.6384 58.7783 19.6793C58.7783 18.8782 59.0776 18.2632 59.6761 17.8345C60.2747 17.4057 60.9768 17.1913 61.7826 17.1913C62.8415 17.1913 63.7393 17.4847 64.476 18.0714L63.63 19.2223C63.066 18.8049 62.4847 18.5961 61.8861 18.5961C61.4718 18.5961 61.1207 18.6864 60.8329 18.8669C60.5567 19.0475 60.4186 19.2901 60.4186 19.5947C60.4186 19.8429 60.5337 20.0291 60.7639 20.1532C61.0056 20.2774 61.3739 20.4015 61.8689 20.5256C62.2602 20.6272 62.5998 20.7343 62.8876 20.8472C63.1753 20.9487 63.4803 21.0954 63.8026 21.2872C64.1249 21.4791 64.3724 21.7273 64.5451 22.032C64.7292 22.3253 64.8213 22.6638 64.8213 23.0475C64.8213 23.7696 64.522 24.3564 63.9235 24.8077C63.3365 25.2591 62.6286 25.4847 61.7998 25.4847C60.5337 25.4847 59.4402 25.118 58.5194 24.3846Z" fill="#212121"/>
<path d="M68.7937 13.2985V18.0545C69.4844 17.479 70.2786 17.1913 71.1764 17.1913C72.3965 17.1913 73.3806 17.6596 74.1288 18.5961C74.6583 19.2506 74.923 20.1927 74.923 21.4226V25.3155H73.2828V21.338C73.2828 20.503 73.1217 19.8881 72.7994 19.4932C72.385 18.9741 71.8267 18.7146 71.1246 18.7146C70.2038 18.7146 69.4268 19.0926 68.7937 19.8486V25.3155H67.1535V13.2985H68.7937Z" fill="#212121"/>
<path d="M38.3417 30.659V31.4207C38.9978 30.8001 39.8092 30.4898 40.7761 30.4898C41.9962 30.4898 42.9804 30.9581 43.7285 31.8946C44.258 32.549 44.5227 33.4912 44.5227 34.7211V38.614H42.8825V34.6365C42.8825 33.8015 42.7214 33.1866 42.3991 32.7916C41.9847 32.2726 41.4264 32.0131 40.7243 32.0131C39.8035 32.0131 39.0265 32.3911 38.3935 33.1471V38.614H36.7532V30.659H38.3417Z" fill="#212121"/>
<path d="M54.4393 34.975H48.1891C48.2352 35.652 48.5057 36.2218 49.0006 36.6845C49.5071 37.1471 50.1114 37.3784 50.8135 37.3784C51.6998 37.3784 52.4768 37.0173 53.1444 36.2952L54.2148 37.2938C53.881 37.7226 53.4206 38.078 52.8336 38.3601C52.2465 38.6422 51.5674 38.7832 50.7962 38.7832C49.6107 38.7832 48.615 38.3883 47.8093 37.5984C47.0036 36.8086 46.6007 35.8213 46.6007 34.6365C46.6007 33.4404 46.969 32.4531 47.7057 31.6746C48.4539 30.8847 49.4035 30.4898 50.5545 30.4898C51.6825 30.4898 52.6149 30.8847 53.3515 31.6746C54.0882 32.4644 54.4565 33.4517 54.4565 34.6365C54.4565 34.7606 54.4508 34.8735 54.4393 34.975ZM50.6063 31.8946C50.0768 31.8946 49.5991 32.0582 49.1733 32.3854C48.7474 32.7014 48.4654 33.1132 48.3272 33.621H52.7472C52.6321 33.1245 52.3674 32.7127 51.953 32.3854C51.5502 32.0582 51.1013 31.8946 50.6063 31.8946Z" fill="#212121"/>
<path d="M61.4671 30.659H62.6066L64.8338 36.0921L67.0611 30.659H68.7531L65.4554 38.614H64.3159L62.0368 33.0286L59.7578 38.614H58.6182L55.3205 30.659H57.0125L59.2398 36.0921L61.4671 30.659Z" fill="#212121"/>
<path d="M69.6982 37.6831L70.5442 36.4983C71.3154 37.085 72.1153 37.3784 72.9441 37.3784C73.3239 37.3784 73.652 37.2881 73.9282 37.1076C74.216 36.9158 74.3599 36.6732 74.3599 36.3798C74.3599 36.2106 74.3138 36.0639 74.2218 35.9397C74.1297 35.8043 73.9858 35.6972 73.7901 35.6182C73.6059 35.5279 73.4218 35.4602 73.2376 35.4151C73.065 35.3586 72.829 35.2966 72.5297 35.2289C72.242 35.1499 72.006 35.0822 71.8218 35.0258C70.5787 34.6196 69.9571 33.9369 69.9571 32.9778C69.9571 32.1767 70.2564 31.5617 70.855 31.133C71.4535 30.7042 72.1556 30.4898 72.9614 30.4898C74.0203 30.4898 74.9181 30.7832 75.6548 31.3699L74.8088 32.5208C74.2448 32.1033 73.6635 31.8946 73.065 31.8946C72.6506 31.8946 72.2995 31.9849 72.0118 32.1654C71.7355 32.3459 71.5974 32.5885 71.5974 32.8932C71.5974 33.1414 71.7125 33.3276 71.9427 33.4517C72.1844 33.5758 72.5527 33.7 73.0477 33.8241C73.439 33.9256 73.7786 34.0328 74.0664 34.1457C74.3541 34.2472 74.6591 34.3939 74.9814 34.5857C75.3037 34.7775 75.5512 35.0258 75.7239 35.3304C75.908 35.6238 76.0001 35.9623 76.0001 36.346C76.0001 37.0681 75.7008 37.6548 75.1023 38.1062C74.5153 38.5575 73.8074 38.7832 72.9786 38.7832C71.7125 38.7832 70.619 38.4165 69.6982 37.6831Z" fill="#212121"/>
<path d="M29.4464 37.7273C29.4464 38.1209 29.3762 38.4554 29.2357 38.7308C29.1152 39.0063 28.9446 39.2326 28.7238 39.4097C28.5231 39.5868 28.2923 39.7147 28.0313 39.7934C27.7704 39.8721 27.5094 39.9115 27.2485 39.9115H25.5925C25.0706 39.9115 24.609 39.8623 24.2075 39.7639C23.8261 39.6458 23.4548 39.4491 23.0935 39.1736C22.7522 38.8784 22.401 38.4849 22.0397 37.993C21.6984 37.501 21.3171 36.8714 20.8955 36.104L8.61113 14.3806C7.96881 13.259 7.31645 12.0882 6.65405 10.8683C6.01173 9.62861 5.40955 8.42832 4.84752 7.26738H4.7873C4.82745 8.68412 4.85756 10.1304 4.87763 11.6061C4.8977 13.0819 4.90774 14.5479 4.90774 16.004V39.0555C4.90774 39.1933 4.8676 39.331 4.7873 39.4687C4.70701 39.5868 4.56651 39.6852 4.36578 39.7639C4.18513 39.8229 3.93422 39.8721 3.61306 39.9115C3.31197 39.9705 2.92056 40 2.43882 40C1.95707 40 1.55562 39.9705 1.23446 39.9115C0.933374 39.8721 0.692503 39.8229 0.51185 39.7639C0.331197 39.6852 0.200726 39.5868 0.120435 39.4687C0.0401451 39.331 0 39.1933 0 39.0555V3.81407C0 3.02699 0.220798 2.4662 0.662394 2.13169C1.10399 1.79718 1.58573 1.62993 2.10762 1.62993H4.57654C5.15865 1.62993 5.64039 1.67912 6.02177 1.77751C6.42322 1.87589 6.77449 2.04314 7.07558 2.27927C7.39674 2.49571 7.69783 2.81055 7.97884 3.22376C8.27993 3.6173 8.60109 4.11906 8.94232 4.72905L18.3965 21.4938C18.9786 22.517 19.5406 23.5206 20.0826 24.5044C20.6246 25.4686 21.1464 26.4229 21.6483 27.3674C22.1501 28.3119 22.6418 29.2465 23.1236 30.1714C23.6254 31.0765 24.1172 31.9915 24.5989 32.9163H24.629C24.5889 31.3618 24.5588 29.7483 24.5387 28.0758C24.5387 26.3836 24.5387 24.7602 24.5387 23.2057V2.48588C24.5387 2.34814 24.5788 2.22024 24.6591 2.10218C24.7394 1.98411 24.8699 1.88573 25.0506 1.80702C25.2513 1.70864 25.5022 1.63977 25.8033 1.60041C26.1244 1.56106 26.5359 1.54138 27.0377 1.54138C27.4793 1.54138 27.8607 1.56106 28.1819 1.60041C28.503 1.63977 28.7539 1.70864 28.9346 1.80702C29.1152 1.88573 29.2457 1.98411 29.326 2.10218C29.4063 2.22024 29.4464 2.34814 29.4464 2.48588V37.7273Z" fill="#F2994A"/>
</svg>
